<mxfile host="app.diagrams.net" modified="2024-02-23T06:37:11.132Z" agent="Mozilla/5.0 (Windows NT 10.0; Win64; x64) AppleWebKit/537.36 (KHTML, like Gecko) Chrome/121.0.0.0 Safari/537.36" version="23.1.5" etag="1IYRloRHllaT7z4QrMf5" type="github">
  <diagram name="第 1 页" id="YWaaPEl07J5OstOQ1vIe">
    <mxGraphModel>
      <root>
        <mxCell id="0" />
        <mxCell id="1" parent="0" />
      </root>
    </mxGraphModel>
  </diagram>
</mxfile>
